<svg width="1337" height="328" viewBox="0 0 1337 328" fill="none" xmlns="http://www.w3.org/2000/svg">
<g clip-path="url(#clip0_17_620)">
<path d="M437.708 258.225V73.1255C455.853 71.5259 476.667 69.9263 495.347 69.9263C549.25 69.9263 568.692 88.5886 568.997 128.884C568.997 157.677 560.991 175.806 535.603 185.709L587.371 258.225H547.344L499.54 190.203H473.084V258.225H437.631H437.708ZM493.974 162.476C522.794 162.476 532.172 152.878 532.172 131.017C532.172 109.155 523.938 101.462 494.279 101.462C486.045 101.462 479.641 101.995 472.703 103.061V162.552H494.051L493.974 162.476Z" fill="#1F1F1F"/>
<path d="M641.351 195.764C641.884 221.586 656.294 233.622 685.114 233.622C704.86 233.622 723.311 226.385 733.985 217.93V248.628C726.742 254.188 707.529 261.425 681.378 261.425C629.304 261.425 606.889 237.659 606.889 184.109C606.889 136.12 632.278 111.06 677.642 111.06C727.047 111.06 744.125 138.558 744.125 179.844V195.84H641.351V195.764ZM641.351 173.674H710.197C710.197 150.441 700.82 137.949 677.108 137.949C653.397 137.949 641.884 149.908 641.351 173.674Z" fill="#1F1F1F"/>
<path d="M784.076 72.5923C802.222 71.2974 817.47 69.9263 840.953 69.9263C899.431 69.9263 920.778 88.8171 920.778 133.378C920.778 181.367 896.991 203.229 840.724 203.229C833.786 203.229 826.848 202.924 819.605 202.162V258.149H784.076V72.5923ZM840.648 173.369C872.975 173.369 884.182 162.4 884.182 135.74C884.182 109.079 874.042 100.015 841.182 100.015C833.481 100.015 826.772 100.015 819.605 100.852V172.302C827.077 173.14 832.947 173.369 840.724 173.369H840.648Z" fill="#1F1F1F"/>
<path d="M1006.93 231.793C1013.64 231.793 1019.97 230.194 1024.32 228.899V257.159C1020.05 259.063 1010.44 261.425 998.929 261.425C972.473 261.425 956.767 252.131 956.767 221.967V55.5295H990.695V214.502C990.695 228.366 995.193 231.793 1006.93 231.793Z" fill="#1F1F1F"/>
<path d="M1136.85 237.658C1130.44 249.389 1114.97 261.424 1090.72 261.424C1058.93 261.424 1043.45 244.057 1043.45 217.701C1043.45 186.242 1061.6 174.511 1104.6 174.511H1135.02V164.38C1135.02 146.251 1126.17 139.853 1102.69 139.853C1084.55 139.853 1065.87 148.155 1055.73 156.382V121.952C1067.77 115.782 1088.82 110.983 1108.03 110.983C1152.33 110.983 1169.17 124.618 1169.17 163.238V258.149H1138.22L1136.85 237.582V237.658ZM1101.62 233.393C1124.88 233.393 1135.02 221.129 1135.02 204.066V194.469H1108.33C1085.16 194.469 1078.14 199.267 1078.14 213.436C1078.14 225.395 1084.24 233.393 1101.62 233.393Z" fill="#1F1F1F"/>
<path d="M1254.57 258.759L1194.26 114.259H1232.99L1270.88 216.635L1301.61 114.259H1336.83L1287.96 253.96C1271.11 301.948 1257.54 308.347 1238.02 308.347C1231.08 308.347 1223.61 307.509 1219.34 305.452L1219.65 274.526C1223.92 276.888 1229.48 278.792 1235.12 278.792C1243.97 278.792 1249 276.126 1254.64 258.835L1254.57 258.759Z" fill="#1F1F1F"/>
<path d="M282.554 0H45.7453C20.4809 0 0 20.4622 0 45.7037V282.296C0 307.538 20.4809 328 45.7453 328H282.554C307.818 328 328.299 307.538 328.299 282.296V45.7037C328.299 20.4622 307.818 0 282.554 0Z" fill="#0079EE"/>
<path d="M118.398 175.578L73.7205 197.897V63.909L118.398 41.5903V175.578Z" fill="#DAEBFF"/>
<path d="M118.398 287.248H73.7205V220.216L118.398 197.897V287.248Z" fill="#DAEBFF"/>
<path d="M73.7205 63.909L252.508 155.088V153.26V108.622L118.398 41.5903L73.7205 63.909Z" fill="#DAEBFF"/>
<path d="M252.508 175.578L73.7205 266.757V264.929V220.216L207.754 153.26L252.508 175.578Z" fill="#DAEBFF"/>
<path d="M204.475 221.891L163.076 242.534L207.754 287.247H269.891L204.475 221.891Z" fill="#DAEBFF"/>
</g>
<defs>
<clipPath id="clip0_17_620">
<rect width="1337" height="328" fill="white"/>
</clipPath>
</defs>
</svg>
